<svg width="130" height="130" viewBox="0 0 130 130" fill="none" xmlns="http://www.w3.org/2000/svg">
<mask id="mask0_420_20" style="mask-type:alpha" maskUnits="userSpaceOnUse" x="0" y="0" width="130" height="130">
<rect width="130" height="130" fill="#D9D9D9"/>
</mask>
<g mask="url(#mask0_420_20)">
<path d="M42.1879 61.0761L56.4642 43.4883C58.441 41.0528 55.826 37.6001 52.946 38.8432L2.21216 60.7422C0.22567 61.5997 -0.227511 64.2141 1.35451 65.6901L64.9024 124.98C67.334 127.249 71.1016 124.464 69.6466 121.474L41.8195 64.2793C41.3093 63.2307 41.453 61.9815 42.1879 61.0761Z" fill="black" stroke="black"/>
<path d="M87.8131 67.9242L73.5368 85.512C71.5599 87.9475 74.175 91.4002 77.055 90.1571L127.789 68.2581C129.775 67.4006 130.228 64.7862 128.646 63.3102L65.0986 4.02034C62.667 1.75169 58.8994 4.53599 60.3544 7.52639L88.1815 64.721C88.6917 65.7696 88.548 67.0188 87.8131 67.9242Z" fill="black" stroke="black"/>
</g>
</svg>
