<svg width="130" height="130" viewBox="0 0 130 130" fill="none" xmlns="http://www.w3.org/2000/svg">
<path d="M36.591 48.4142L49.5013 38.7578C51.4121 37.3286 49.6655 34.3565 47.4871 35.3304L2.70153 55.3523C1.40855 55.9303 1.10952 57.6321 2.12801 58.6163L67.4755 121.763C69.0967 123.329 71.6675 121.434 70.65 119.422L36.0042 50.9184C35.566 50.0519 35.8135 48.9958 36.591 48.4142Z" fill="white" stroke="white"/>
<path d="M93.409 81.5858L80.4987 91.2422C78.5879 92.6714 80.3345 95.6435 82.5129 94.6696L127.298 74.6477C128.591 74.0697 128.89 72.3679 127.872 71.3837L62.5245 8.23733C60.9033 6.67074 58.3325 8.5664 59.35 10.5782L93.9958 79.0816C94.434 79.9481 94.1865 81.0042 93.409 81.5858Z" fill="white" stroke="white"/>
</svg>
