<svg width="782" height="749" viewBox="0 0 782 749" fill="none" xmlns="http://www.w3.org/2000/svg">
<path d="M151 354L176 350L230 336.5L248 316L306.5 284L318 267.5V244L311.971 203L306.5 142L324.5 133.5L337.5 131L341.382 136.5L342.5 110L333.5 64L311.971 31.5L252 4L182 13L145 31.5L124 60L111 95.5L129 60L197.5 40L268.5 50L252 95.5L288 116L295.5 163L264 212L248 203L234 255L226.5 234.5V206.5L209 199.5L134 212L119 234.5L124 272L119 295L129 333L151 354Z" fill="#B2B2B2"/>
<path d="M1 509L36 500L62 481L87 476L129 434L154 419L182 406L176 374V350M176 350L151 354L129 333L119 295L124 272M176 350L230 336.5L248 316L306.5 284L318 267.5V244L311.971 203L306.5 142L324.5 133.5L337.5 131L341.382 136.5M124 272L111 230L102 203L107 176.5M124 272L119 234.5L134 212L209 199.5L226.5 206.5V234.5L234 255L248 203L264 212L295.5 163L288 116L252 95.5L268.5 50L197.5 40L129 60L111 95.5M111 95.5L107 122L97.5 136.5V150.5M111 95.5L124 60L145 31.5L182 13L252 4L311.971 31.5L333.5 64L342.5 110L341.382 136.5M464 371L424.5 354L364 336.5L342.5 312.5L333.5 216.5L337.5 206.5L346.5 187.5L349.5 148L341.382 136.5M218 240.5L186 261.5L134 267.5L129 240.5L134 227.5L209 212L218 223.5V240.5Z" stroke="black" stroke-width="6"/>
<path d="M186 261.5L218 240.5V223.5L209 212L134 227.5L129 240.5L134 267.5L186 261.5Z" fill="white" stroke="black" stroke-width="6"/>
<path d="M309.906 540.539C301.47 540.539 294.06 537.917 287.676 532.673C281.406 527.429 276.504 520.076 272.97 510.614C269.55 501.038 267.84 489.752 267.84 476.756C267.84 464.216 269.721 453.272 273.483 443.924C277.359 434.462 282.489 427.166 288.873 422.036C295.371 416.792 302.553 414.17 310.419 414.17C315.093 414.17 319.197 414.626 322.731 415.538C326.265 416.336 329.4 417.419 332.136 418.787C333.504 419.585 334.188 420.782 334.188 422.378L334.701 448.37C334.701 450.308 334.017 451.277 332.649 451.277C331.395 451.277 330.597 450.536 330.255 449.054L328.545 442.727C326.151 433.835 323.358 427.679 320.166 424.259C317.088 420.839 313.383 419.129 309.051 419.129C301.071 419.129 294.402 424.088 289.044 434.006C283.8 443.81 281.178 458.06 281.178 476.756C281.178 489.524 282.489 500.297 285.111 509.075C287.847 517.853 291.324 524.465 295.542 528.911C299.874 533.357 304.434 535.58 309.222 535.58C314.352 535.58 318.456 533.984 321.534 530.792C324.726 527.6 327.405 521.444 329.571 512.324L331.623 503.945C331.965 502.235 332.877 501.494 334.359 501.722C335.613 501.95 336.24 502.919 336.24 504.629L335.556 532.331C335.556 533.927 334.815 535.124 333.333 535.922C330.597 537.29 327.348 538.373 323.586 539.171C319.938 540.083 315.378 540.539 309.906 540.539ZM347.777 539C346.409 539 345.725 538.373 345.725 537.119C345.725 535.979 346.352 535.295 347.606 535.067L350 534.725C352.394 534.383 353.933 533.699 354.617 532.673C355.415 531.647 355.814 529.937 355.814 527.543V429.56C355.814 427.508 355.472 426.14 354.788 425.456C354.218 424.658 353.135 424.145 351.539 423.917L347.948 423.404C346.694 423.176 346.067 422.492 346.067 421.352C346.067 420.212 346.694 419.528 347.948 419.3C351.14 418.616 353.819 417.818 355.985 416.906C358.151 415.994 359.975 415.082 361.457 414.17C363.281 413.03 364.649 412.46 365.561 412.46C366.815 412.46 367.442 413.372 367.442 415.196V460.511C367.442 461.537 367.784 462.164 368.468 462.392C369.152 462.506 370.007 462.107 371.033 461.195C375.365 457.205 379.184 454.469 382.49 452.987C385.796 451.505 389.273 450.764 392.921 450.764C398.279 450.764 402.497 452.588 405.575 456.236C408.653 459.77 410.192 465.014 410.192 471.968V527.543C410.192 529.937 410.534 531.647 411.218 532.673C412.016 533.585 413.612 534.212 416.006 534.554L419.768 535.067C421.022 535.295 421.649 535.979 421.649 537.119C421.649 538.373 420.965 539 419.597 539H390.869C389.273 539 388.475 538.373 388.475 537.119C388.475 535.979 389.102 535.295 390.356 535.067L392.75 534.725C395.144 534.383 396.683 533.699 397.367 532.673C398.165 531.647 398.564 529.937 398.564 527.543V473.849C398.564 468.263 397.538 464.33 395.486 462.05C393.434 459.77 390.527 458.63 386.765 458.63C383.117 458.63 379.811 459.713 376.847 461.879C373.997 463.931 371.717 466.724 370.007 470.258C368.297 473.678 367.442 477.497 367.442 481.715V527.543C367.442 529.937 367.784 531.647 368.468 532.673C369.266 533.699 370.862 534.326 373.256 534.554L377.873 535.067C379.127 535.295 379.754 535.979 379.754 537.119C379.754 538.373 379.07 539 377.702 539H347.777ZM456.315 540.539C450.843 540.539 445.941 538.715 441.609 535.067C437.277 531.419 433.8 526.289 431.178 519.677C428.67 512.951 427.416 505.199 427.416 496.421C427.416 487.415 428.727 479.492 431.349 472.652C433.971 465.812 437.562 460.454 442.122 456.578C446.682 452.702 451.755 450.764 457.341 450.764C464.067 450.764 469.482 453.557 473.586 459.143C477.804 464.615 479.913 473.564 479.913 485.99C479.913 489.752 478.488 491.633 475.638 491.633H443.148C440.868 491.633 439.728 492.944 439.728 495.566C439.728 507.65 441.495 516.713 445.029 522.755C448.563 528.797 453.066 531.818 458.538 531.818C462.87 531.818 466.404 530.279 469.14 527.201C471.876 524.123 474.099 518.936 475.809 511.64C476.151 510.386 476.892 509.759 478.032 509.759C479.4 509.759 479.913 510.899 479.571 513.179C477.747 523.325 474.84 530.45 470.85 534.554C466.86 538.544 462.015 540.539 456.315 540.539ZM442.635 487.358H459.906C465.378 487.358 468.114 484.508 468.114 478.808C468.114 471.398 467.202 465.584 465.378 461.366C463.554 457.148 460.818 455.039 457.17 455.039C452.724 455.039 448.962 457.604 445.884 462.734C442.92 467.864 440.982 475.16 440.07 484.622C439.842 486.446 440.697 487.358 442.635 487.358ZM504.789 540.539C500.001 540.539 496.068 539.057 492.99 536.093C489.912 533.015 488.373 528.968 488.373 523.952C488.373 519.05 489.912 514.433 492.99 510.101C496.068 505.655 500.286 501.665 505.644 498.131C511.002 494.597 517.101 491.747 523.941 489.581C525.423 489.125 526.164 488.156 526.164 486.674V471.113C526.164 465.641 525.309 461.765 523.599 459.485C521.889 457.091 519.552 455.894 516.588 455.894C513.738 455.894 511.116 457.205 508.722 459.827C506.442 462.335 504.789 466.61 503.763 472.652C503.193 476.3 501.939 478.979 500.001 480.689C498.177 482.285 496.296 483.083 494.358 483.083C491.166 483.083 489.57 481.487 489.57 478.295C489.57 474.989 490.482 471.74 492.306 468.548C494.244 465.242 496.752 462.278 499.83 459.656C502.908 456.92 506.271 454.754 509.919 453.158C513.567 451.562 517.215 450.764 520.863 450.764C532.149 450.764 537.792 457.319 537.792 470.429V522.755C537.792 527.543 538.989 529.937 541.383 529.937C542.865 529.937 544.233 528.968 545.487 527.03C546.741 524.978 547.368 521.558 547.368 516.77C547.368 514.946 548.109 514.034 549.591 514.034C550.959 514.034 551.643 515.003 551.643 516.941C551.643 525.263 550.161 531.305 547.197 535.067C544.347 538.715 541.098 540.539 537.45 540.539C534.714 540.539 532.548 539.456 530.952 537.29C529.356 535.01 528.273 532.331 527.703 529.253C527.589 528.113 527.076 527.543 526.164 527.543C525.366 527.429 524.568 527.942 523.77 529.082C521.034 532.844 518.241 535.694 515.391 537.632C512.541 539.57 509.007 540.539 504.789 540.539ZM509.406 532.673C512.37 532.673 515.106 531.647 517.614 529.595C520.122 527.429 522.174 524.579 523.77 521.045C525.366 517.511 526.164 513.521 526.164 509.075V496.592C526.164 494.426 524.967 493.799 522.573 494.711C515.619 497.219 510.204 500.696 506.328 505.142C502.566 509.474 500.685 514.718 500.685 520.874C500.685 528.74 503.592 532.673 509.406 532.673ZM576.703 540.539C572.713 540.539 569.407 539.171 566.785 536.435C564.277 533.585 563.023 528.968 563.023 522.584V458.63C563.023 457.262 562.339 456.578 560.971 456.578H556.012C554.188 456.578 553.276 455.894 553.276 454.526C553.276 453.614 553.789 452.816 554.815 452.132C558.577 449.51 561.598 446.717 563.878 443.753C566.158 440.675 568.153 436.514 569.863 431.27C570.661 428.876 571.63 427.679 572.77 427.679C574.024 427.679 574.651 428.591 574.651 430.415V449.396C574.651 450.992 575.449 451.79 577.045 451.79H588.16C589.984 451.79 590.896 452.588 590.896 454.184C590.896 455.78 589.984 456.578 588.16 456.578H577.045C575.449 456.578 574.651 457.376 574.651 458.972V522.755C574.651 525.263 575.05 527.258 575.848 528.74C576.646 530.108 578.128 530.792 580.294 530.792C582.688 530.792 584.626 529.595 586.108 527.201C587.704 524.807 588.73 520.931 589.186 515.573C589.414 513.977 590.155 513.179 591.409 513.179C592.777 513.179 593.461 514.034 593.461 515.744C593.119 524.522 591.295 530.849 587.989 534.725C584.797 538.601 581.035 540.539 576.703 540.539ZM615.313 435.545C612.919 435.545 610.867 434.69 609.157 432.98C607.561 431.27 606.763 429.104 606.763 426.482C606.763 423.86 607.561 421.751 609.157 420.155C610.867 418.445 612.919 417.59 615.313 417.59C617.707 417.59 619.702 418.445 621.298 420.155C622.894 421.751 623.692 423.86 623.692 426.482C623.692 429.104 622.894 431.27 621.298 432.98C619.702 434.69 617.707 435.545 615.313 435.545ZM600.949 539C599.239 539 598.384 538.373 598.384 537.119C598.384 536.093 599.125 535.409 600.607 535.067L602.659 534.725C605.509 534.269 607.333 533.585 608.131 532.673C608.929 531.647 609.328 529.937 609.328 527.543V470.087C609.328 468.035 608.986 466.667 608.302 465.983C607.732 465.185 606.649 464.672 605.053 464.444L601.462 463.931C599.98 463.817 599.239 463.19 599.239 462.05C599.239 461.138 600.151 460.511 601.975 460.169C605.509 459.599 608.359 458.687 610.525 457.433C612.691 456.179 614.8 454.64 616.852 452.816C617.878 451.79 618.733 451.277 619.417 451.277C620.443 451.277 620.956 451.961 620.956 453.329V527.543C620.956 529.937 621.298 531.647 621.982 532.673C622.666 533.699 623.977 534.326 625.915 534.554L630.19 535.067C631.444 535.295 632.071 535.922 632.071 536.948C632.071 538.316 631.216 539 629.506 539H600.949ZM639.024 539C637.314 539 636.459 538.373 636.459 537.119C636.459 536.093 637.2 535.409 638.682 535.067L640.734 534.725C643.128 534.269 644.667 533.585 645.351 532.673C646.149 531.647 646.548 529.937 646.548 527.543V470.087C646.548 468.035 646.206 466.667 645.522 465.983C644.952 465.185 643.869 464.672 642.273 464.444L638.682 463.931C637.2 463.817 636.459 463.19 636.459 462.05C636.459 461.138 637.371 460.511 639.195 460.169C642.729 459.599 645.408 458.687 647.232 457.433C649.17 456.179 651.165 454.64 653.217 452.816C654.243 451.79 655.098 451.277 655.782 451.277C656.808 451.277 657.321 451.961 657.321 453.329V461.024C657.321 462.05 657.663 462.734 658.347 463.076C659.145 463.304 660 462.962 660.912 462.05C665.472 457.718 669.462 454.754 672.882 453.158C676.416 451.562 680.121 450.764 683.997 450.764C689.127 450.764 693.231 452.588 696.309 456.236C699.387 459.77 700.926 465.014 700.926 471.968V527.543C700.926 529.937 701.268 531.647 701.952 532.673C702.75 533.585 704.346 534.212 706.74 534.554L710.502 535.067C711.756 535.295 712.383 535.979 712.383 537.119C712.383 538.373 711.699 539 710.331 539H681.603C680.007 539 679.209 538.373 679.209 537.119C679.209 535.979 679.836 535.295 681.09 535.067L683.484 534.725C685.878 534.383 687.417 533.699 688.101 532.673C688.899 531.647 689.298 529.937 689.298 527.543V473.849C689.298 468.263 688.272 464.33 686.22 462.05C684.168 459.77 681.261 458.63 677.499 458.63C673.851 458.63 670.545 459.713 667.581 461.879C664.731 463.931 662.451 466.724 660.741 470.258C659.031 473.678 658.176 477.497 658.176 481.715V527.543C658.176 529.937 658.518 531.647 659.202 532.673C660 533.699 661.596 534.326 663.99 534.554L668.607 535.067C669.861 535.295 670.488 535.922 670.488 536.948C670.488 538.316 669.633 539 667.923 539H639.024ZM744.655 575.765C735.991 575.765 729.151 573.998 724.135 570.464C719.119 567.044 716.611 562.883 716.611 557.981C716.611 555.929 716.896 554.048 717.466 552.338C718.036 550.742 719.233 548.861 721.057 546.695C722.995 544.529 725.902 541.736 729.778 538.316C731.146 537.062 731.83 535.922 731.83 534.896C731.83 533.756 731.146 532.901 729.778 532.331C725.674 530.621 723.223 528.455 722.425 525.833C721.627 523.097 722.596 520.589 725.332 518.309L737.644 507.707C739.012 506.567 738.955 505.598 737.473 504.8C732.799 502.52 729.094 498.986 726.358 494.198C723.622 489.41 722.254 484.28 722.254 478.808C722.254 473.564 723.394 468.833 725.674 464.615C727.954 460.397 731.032 457.034 734.908 454.526C738.784 452.018 743.116 450.764 747.904 450.764C750.64 450.764 753.262 451.22 755.77 452.132C757.366 452.702 758.335 452.189 758.677 450.593C759.703 446.261 761.584 442.898 764.32 440.504C767.17 437.996 769.963 436.742 772.699 436.742C775.321 436.742 777.43 437.54 779.026 439.136C780.736 440.618 781.591 442.499 781.591 444.779C781.591 446.717 781.021 448.256 779.881 449.396C778.741 450.536 777.316 451.106 775.606 451.106C774.124 451.106 773.041 450.821 772.357 450.251C771.673 449.681 771.046 449.111 770.476 448.541C769.906 447.971 768.994 447.686 767.74 447.686C765.004 447.686 763.294 449.168 762.61 452.132C762.268 453.272 762.268 454.241 762.61 455.039C763.066 455.837 763.693 456.635 764.491 457.433C767.227 460.055 769.336 463.247 770.818 467.009C772.414 470.771 773.212 474.932 773.212 479.492C773.212 484.964 772.072 489.866 769.792 494.198C767.626 498.53 764.605 501.95 760.729 504.458C756.967 506.966 752.692 508.22 747.904 508.22C745.852 508.22 744.085 508.676 742.603 509.588C741.121 510.386 739.639 511.583 738.157 513.179L735.25 516.428C733.768 518.252 733.312 520.019 733.882 521.729C734.566 523.325 736.162 524.123 738.67 524.123H753.376C761.584 524.123 768.082 526.175 772.87 530.279C777.658 534.269 780.052 539.798 780.052 546.866C780.052 552.452 778.456 557.411 775.264 561.743C772.072 566.075 767.797 569.495 762.439 572.003C757.195 574.511 751.267 575.765 744.655 575.765ZM747.733 503.945C751.837 503.945 755.086 501.722 757.48 497.276C759.874 492.83 761.071 486.788 761.071 479.15C761.071 471.74 759.817 465.812 757.309 461.366C754.915 456.806 751.723 454.526 747.733 454.526C743.743 454.526 740.494 456.806 737.986 461.366C735.592 465.812 734.395 471.74 734.395 479.15C734.395 486.788 735.592 492.83 737.986 497.276C740.38 501.722 743.629 503.945 747.733 503.945ZM746.707 572.003C750.811 572.003 754.573 571.091 757.993 569.267C761.413 567.443 764.092 564.878 766.03 561.572C768.082 558.38 769.108 554.732 769.108 550.628C769.108 545.498 767.569 541.565 764.491 538.829C761.527 535.979 757.309 534.554 751.837 534.554H747.904C744.37 534.554 741.691 534.896 739.867 535.58C738.157 536.264 736.504 537.461 734.908 539.171C731.374 542.933 729.151 545.954 728.239 548.234C727.327 550.514 726.871 552.851 726.871 555.245C726.871 560.261 728.581 564.308 732.001 567.386C735.535 570.464 740.437 572.003 746.707 572.003ZM266.814 713C265.104 713 264.249 712.373 264.249 711.119C264.249 710.093 264.99 709.409 266.472 709.067L270.405 708.383C274.281 707.699 276.219 705.476 276.219 701.714V601.166C276.219 598.772 275.82 597.176 275.022 596.378C274.338 595.58 272.799 594.953 270.405 594.497L266.472 593.813C264.99 593.471 264.249 592.787 264.249 591.761C264.249 590.507 265.104 589.88 266.814 589.88H301.356C310.248 589.88 317.943 592.502 324.441 597.746C330.939 602.876 335.955 610.115 339.489 619.463C343.023 628.811 344.79 639.641 344.79 651.953C344.79 664.379 342.909 675.152 339.147 684.272C335.499 693.392 330.312 700.46 323.586 705.476C316.86 710.492 308.88 713 299.646 713H266.814ZM300.33 708.554C310.476 708.554 318.171 703.709 323.415 694.019C328.773 684.329 331.452 670.307 331.452 651.953C331.452 633.713 328.887 619.577 323.757 609.545C318.741 599.399 311.274 594.326 301.356 594.326C292.692 594.326 288.36 598.487 288.36 606.809V696.071C288.36 700.631 289.272 703.88 291.096 705.818C293.034 707.642 296.112 708.554 300.33 708.554ZM372.197 714.539C367.409 714.539 363.476 713.057 360.398 710.093C357.32 707.015 355.781 702.968 355.781 697.952C355.781 693.05 357.32 688.433 360.398 684.101C363.476 679.655 367.694 675.665 373.052 672.131C378.41 668.597 384.509 665.747 391.349 663.581C392.831 663.125 393.572 662.156 393.572 660.674V645.113C393.572 639.641 392.717 635.765 391.007 633.485C389.297 631.091 386.96 629.894 383.996 629.894C381.146 629.894 378.524 631.205 376.13 633.827C373.85 636.335 372.197 640.61 371.171 646.652C370.601 650.3 369.347 652.979 367.409 654.689C365.585 656.285 363.704 657.083 361.766 657.083C358.574 657.083 356.978 655.487 356.978 652.295C356.978 648.989 357.89 645.74 359.714 642.548C361.652 639.242 364.16 636.278 367.238 633.656C370.316 630.92 373.679 628.754 377.327 627.158C380.975 625.562 384.623 624.764 388.271 624.764C399.557 624.764 405.2 631.319 405.2 644.429V696.755C405.2 701.543 406.397 703.937 408.791 703.937C410.273 703.937 411.641 702.968 412.895 701.03C414.149 698.978 414.776 695.558 414.776 690.77C414.776 688.946 415.517 688.034 416.999 688.034C418.367 688.034 419.051 689.003 419.051 690.941C419.051 699.263 417.569 705.305 414.605 709.067C411.755 712.715 408.506 714.539 404.858 714.539C402.122 714.539 399.956 713.456 398.36 711.29C396.764 709.01 395.681 706.331 395.111 703.253C394.997 702.113 394.484 701.543 393.572 701.543C392.774 701.429 391.976 701.942 391.178 703.082C388.442 706.844 385.649 709.694 382.799 711.632C379.949 713.57 376.415 714.539 372.197 714.539ZM376.814 706.673C379.778 706.673 382.514 705.647 385.022 703.595C387.53 701.429 389.582 698.579 391.178 695.045C392.774 691.511 393.572 687.521 393.572 683.075V670.592C393.572 668.426 392.375 667.799 389.981 668.711C383.027 671.219 377.612 674.696 373.736 679.142C369.974 683.474 368.093 688.718 368.093 694.874C368.093 702.74 371 706.673 376.814 706.673ZM450.928 714.539C445.912 714.539 441.409 712.829 437.419 709.409C433.543 705.875 430.522 701.03 428.356 694.874C426.19 688.604 425.107 681.365 425.107 673.157C425.107 663.581 426.589 655.202 429.553 648.02C432.517 640.724 436.621 635.024 441.865 630.92C447.109 626.816 453.037 624.764 459.649 624.764C461.245 624.764 462.841 624.935 464.437 625.277C466.033 625.505 467.572 625.961 469.054 626.645C470.878 627.557 471.79 627.158 471.79 625.448V603.56C471.79 601.508 471.448 600.083 470.764 599.285C470.194 598.487 469.111 598.031 467.515 597.917L463.069 597.404C461.815 597.176 461.188 596.492 461.188 595.352C461.188 594.212 461.815 593.528 463.069 593.3C466.717 592.616 469.624 591.818 471.79 590.906C474.07 589.994 475.951 589.082 477.433 588.17C479.257 587.03 480.625 586.46 481.537 586.46C482.791 586.46 483.418 587.372 483.418 589.196V696.755C483.418 701.543 484.615 703.937 487.009 703.937C488.491 703.937 489.859 702.968 491.113 701.03C492.367 698.978 492.994 695.558 492.994 690.77C492.994 688.946 493.735 688.034 495.217 688.034C496.585 688.034 497.269 689.003 497.269 690.941C497.269 699.263 495.844 705.305 492.994 709.067C490.144 712.715 486.895 714.539 483.247 714.539C479.941 714.539 477.433 713.456 475.723 711.29C474.013 709.01 472.873 706.331 472.303 703.253C472.189 702.341 471.79 701.885 471.106 701.885C470.422 701.771 469.795 702.17 469.225 703.082C466.033 707.528 463.126 710.549 460.504 712.145C457.882 713.741 454.69 714.539 450.928 714.539ZM454.69 706.673C457.654 706.673 460.39 705.704 462.898 703.766C465.52 701.714 467.629 698.978 469.225 695.558C470.935 692.138 471.79 688.319 471.79 684.101V645.626C471.79 640.496 470.593 636.449 468.199 633.485C465.919 630.521 462.898 629.039 459.136 629.039C452.752 629.039 447.565 632.801 443.575 640.325C439.699 647.735 437.761 657.881 437.761 670.763C437.761 682.505 439.243 691.454 442.207 697.61C445.285 703.652 449.446 706.673 454.69 706.673ZM529.08 714.539C524.064 714.539 519.561 712.829 515.571 709.409C511.695 705.875 508.674 701.03 506.508 694.874C504.342 688.604 503.259 681.365 503.259 673.157C503.259 663.581 504.741 655.202 507.705 648.02C510.669 640.724 514.773 635.024 520.017 630.92C525.261 626.816 531.189 624.764 537.801 624.764C539.397 624.764 540.993 624.935 542.589 625.277C544.185 625.505 545.724 625.961 547.206 626.645C549.03 627.557 549.942 627.158 549.942 625.448V603.56C549.942 601.508 549.6 600.083 548.916 599.285C548.346 598.487 547.263 598.031 545.667 597.917L541.221 597.404C539.967 597.176 539.34 596.492 539.34 595.352C539.34 594.212 539.967 593.528 541.221 593.3C544.869 592.616 547.776 591.818 549.942 590.906C552.222 589.994 554.103 589.082 555.585 588.17C557.409 587.03 558.777 586.46 559.689 586.46C560.943 586.46 561.57 587.372 561.57 589.196V696.755C561.57 701.543 562.767 703.937 565.161 703.937C566.643 703.937 568.011 702.968 569.265 701.03C570.519 698.978 571.146 695.558 571.146 690.77C571.146 688.946 571.887 688.034 573.369 688.034C574.737 688.034 575.421 689.003 575.421 690.941C575.421 699.263 573.996 705.305 571.146 709.067C568.296 712.715 565.047 714.539 561.399 714.539C558.093 714.539 555.585 713.456 553.875 711.29C552.165 709.01 551.025 706.331 550.455 703.253C550.341 702.341 549.942 701.885 549.258 701.885C548.574 701.771 547.947 702.17 547.377 703.082C544.185 707.528 541.278 710.549 538.656 712.145C536.034 713.741 532.842 714.539 529.08 714.539ZM532.842 706.673C535.806 706.673 538.542 705.704 541.05 703.766C543.672 701.714 545.781 698.978 547.377 695.558C549.087 692.138 549.942 688.319 549.942 684.101V645.626C549.942 640.496 548.745 636.449 546.351 633.485C544.071 630.521 541.05 629.039 537.288 629.039C530.904 629.039 525.717 632.801 521.727 640.325C517.851 647.735 515.913 657.881 515.913 670.763C515.913 682.505 517.395 691.454 520.359 697.61C523.437 703.652 527.598 706.673 532.842 706.673ZM588.804 748.055C585.726 748.055 583.275 746.972 581.451 744.806C579.627 742.754 578.715 740.36 578.715 737.624C578.715 735.458 579.342 733.634 580.596 732.152C581.85 730.67 583.56 729.929 585.726 729.929C587.55 729.929 588.861 730.328 589.659 731.126C590.457 731.924 591.027 732.836 591.369 733.862C591.711 734.888 592.053 735.8 592.395 736.598C592.737 737.396 593.421 737.795 594.447 737.795C595.701 737.795 596.841 736.883 597.867 735.059C598.893 733.349 600.318 729.644 602.142 723.944C603.282 720.524 603.966 717.56 604.194 715.052C604.536 712.544 604.479 709.865 604.023 707.015C603.681 704.165 602.826 700.688 601.458 696.584L582.819 637.247C582.021 634.511 581.223 632.744 580.425 631.946C579.741 631.148 578.601 630.578 577.005 630.236L574.44 629.723C572.958 629.381 572.217 628.64 572.217 627.5C572.217 626.36 573.015 625.79 574.611 625.79H602.826C604.422 625.79 605.22 626.36 605.22 627.5C605.22 628.754 604.479 629.495 602.997 629.723L600.261 630.065C597.525 630.407 595.758 631.091 594.96 632.117C594.276 633.029 594.333 634.739 595.131 637.247L610.179 687.35C610.521 688.49 611.034 689.06 611.718 689.06C612.516 689.06 613.086 688.49 613.428 687.35L627.963 640.325C628.875 637.247 629.103 634.967 628.647 633.485C628.305 631.889 626.709 630.863 623.859 630.407L620.268 629.723C618.786 629.381 618.045 628.64 618.045 627.5C618.045 626.36 618.843 625.79 620.439 625.79H642.156C643.752 625.79 644.55 626.417 644.55 627.671C644.55 628.811 643.866 629.609 642.498 630.065L640.959 630.578C639.249 631.148 637.824 632.174 636.684 633.656C635.544 635.138 634.347 637.703 633.093 641.351L607.614 720.866C605.106 728.846 602.826 734.774 600.774 738.65C598.836 742.526 596.955 745.034 595.131 746.174C593.307 747.428 591.198 748.055 588.804 748.055Z" fill="black"/>
</svg>
